# xmcd CD database file
#
# Track frame offsets:
#	150
#	11387
#	22312
#	45165
#	72148
#	93192
#	132983
#	148362
#	167868
#	190564
#	220150
#	243973
#	266037
#	291884
#
# Disc length: 4175 seconds
#
# Revision: 0
# Processed by: cddbd v1.5.2PL0 Copyright (c) Steve Scherf et al.
# Submitted via: CDex 1.51
#
DISCID=c8104d0e
DTITLE=Santana - Multi-Dimensional Warrior CD DISC 1
DYEAR=2007
DGENRE=Blues
TTITLE0=Let There Be Light  
TTITLE1=Brotherhood
TTITLE2=Spirit
TTITLE3=Right Now  
TTITLE4=Life Is for Living  
TTITLE5=Saja -Right On
TTITLE6=Somewhere in Heaven  
TTITLE7=I Believe It's Time
TTITLE8=Serpents and Doves
TTITLE9=Your Touch  
TTITLE10=I'll Be Waiting  
TTITLE11=The River
TTITLE12=Bailando - Aquatic Park
TTITLE13=Praise
EXTD=YEAR: 2007
EXTT0=
EXTT1=
EXTT2=
EXTT3=
EXTT4=
EXTT5=
EXTT6=
EXTT7=
EXTT8=
EXTT9=
EXTT10=
EXTT11=
EXTT12=
EXTT13=
PLAYORDER=
